<svg xmlns="http://www.w3.org/2000/svg" viewBox="0 0 560 560">
<g transform="translate(-440.36,-228.8)">
<circle cx="720.36" cy="506.8" r="212" fill="#0A2245"/>
<circle cx="720.36" cy="506.8" r="150" fill="#FFFFFF"/>

  <clipPath id="oclip"><circle cx="720.36" cy="506.8" r="150"/></clipPath>
  <g clip-path="url(#oclip)">
    <circle cx="720.36" cy="506.8" r="150" fill="#F4F6F9"/>
    <path d="M570.36,564.8 L570.36,500.8 L596.36,500.8 L596.36,472.8 L624.36,472.8 L624.36,508.8 L648.36,508.8 L648.36,564.8 Z" fill="#B4BCC6"/>
    <path d="M738.36,568.8 L738.36,486.8 L760.36,486.8 L760.36,448.8 L770.36,448.8 L770.36,422.8 L778.36,422.8 L778.36,454.8 L792.36,454.8 L792.36,498.8 L816.36,498.8 L816.36,466.8 L840.36,466.8 L840.36,516.8 L870.36,516.8 L870.36,568.8 Z" fill="#8E99A6"/>
    <path d="M570.36,566.8 C640.36,558.8 760.36,570.8 870.36,560.8 L870.36,656.8 L570.36,656.8 Z" fill="#0A2245"/>
    <path d="M716.36,664.8 C656.36,618.8 794.36,602.8 736.36,572.8 C726.36,566.8 728.36,562.8 736.36,558.8 L754.36,562.8 C746.36,566.8 746.36,570.8 754.36,576.8 C816.36,610.8 680.36,628.8 772.36,664.8 Z" fill="#E9EDF1"/>
  </g>
<path d="M632.36,626.8 C602.36,682.8 690.36,696.8 624.36,724.8 C664.36,730.8 708.36,728.8 744.36,716.8 C692.36,690.8 762.36,672.8 778.36,632.8 Z" fill="#0A2245"/>
<path d="M686.36,718.8 C648.36,698.8 716.36,684.8 696.36,658.8 L712.36,658.8 C730.36,686.8 668.36,700.8 706.36,720.8 Z" fill="#E9EDF1"/>

  <g fill="#0A2245">
    <polygon points="636.36,412.8 682.36,392.8 728.36,412.8 682.36,430.8"/>
    <path d="M636.36,412.8 L631.36,444.8" stroke="#0A2245" stroke-width="4" fill="none"/>
    <circle cx="631.36" cy="448.8" r="5.5"/>
    <circle cx="682.36" cy="440.8" r="19"/>
    <path d="M658.36,464.8 C658.36,456.8 706.36,456.8 706.36,464.8 L711.36,552.8 C711.36,560.8 653.36,560.8 653.36,552.8 Z"/>
    <line x1="655.36" y1="472.8" x2="646.36" y2="552.8" stroke="#0A2245" stroke-width="13" stroke-linecap="round"/>
    <line x1="709.36" y1="472.8" x2="719.36" y2="548.8" stroke="#0A2245" stroke-width="13" stroke-linecap="round"/>
    <rect x="660.36" y="472.8" width="44" height="74" rx="15" fill="#1B3A66"/>
    <rect x="665.36" y="482.8" width="34" height="34" rx="9" fill="#0A2245" opacity="0.35"/>
    <line x1="672.36" y1="560.8" x2="667.36" y2="638.8" stroke="#0A2245" stroke-width="15" stroke-linecap="round"/>
    <line x1="693.36" y1="560.8" x2="700.36" y2="634.8" stroke="#0A2245" stroke-width="15" stroke-linecap="round"/>
    <ellipse cx="663.36" cy="645.8" rx="14" ry="7"/>
    <ellipse cx="705.36" cy="641.8" rx="14" ry="7"/>
  </g>
<path d="M903.5,271.8 L911.1,316.7 L955.7,325.9 L915.3,347.0 L920.4,392.3 L887.8,360.4 L846.3,379.3 L866.6,338.4 L835.9,304.8 L881.0,311.4 Z" fill="#C68B21"/>
</g></svg>