<svg xmlns="http://www.w3.org/2000/svg" viewBox="0 0 1456 1210">
<path d="M427.7 730.0 409.71999999999997 669.86H260.3L242.32 730.0H102.2L257.82 303.44H417.16L572.78 730.0ZM288.82 574.38H381.2L336.56 422.48H334.08Z" fill="#C68B21"/>
<circle cx="720.36" cy="506.8" r="212" fill="#0A2245"/>
<g id="scene-block">
<circle cx="720.36" cy="506.8" r="150" fill="#FFFFFF"/>

  <clipPath id="oclip"><circle cx="720.36" cy="506.8" r="150"/></clipPath>
  <g clip-path="url(#oclip)">
    <circle cx="720.36" cy="506.8" r="150" fill="#F4F6F9"/>
    <path d="M570.36,564.8 L570.36,500.8 L596.36,500.8 L596.36,472.8 L624.36,472.8 L624.36,508.8 L648.36,508.8 L648.36,564.8 Z" fill="#B4BCC6"/>
    <path d="M738.36,568.8 L738.36,486.8 L760.36,486.8 L760.36,448.8 L770.36,448.8 L770.36,422.8 L778.36,422.8 L778.36,454.8 L792.36,454.8 L792.36,498.8 L816.36,498.8 L816.36,466.8 L840.36,466.8 L840.36,516.8 L870.36,516.8 L870.36,568.8 Z" fill="#8E99A6"/>
    <path d="M570.36,566.8 C640.36,558.8 760.36,570.8 870.36,560.8 L870.36,656.8 L570.36,656.8 Z" fill="#0A2245"/>
    <path d="M716.36,664.8 C656.36,618.8 794.36,602.8 736.36,572.8 C726.36,566.8 728.36,562.8 736.36,558.8 L754.36,562.8 C746.36,566.8 746.36,570.8 754.36,576.8 C816.36,610.8 680.36,628.8 772.36,664.8 Z" fill="#E9EDF1"/>
  </g>
<path d="M632.36,626.8 C602.36,682.8 690.36,696.8 624.36,724.8 C664.36,730.8 708.36,728.8 744.36,716.8 C692.36,690.8 762.36,672.8 778.36,632.8 Z" fill="#0A2245"/>
<path d="M686.36,718.8 C648.36,698.8 716.36,684.8 696.36,658.8 L712.36,658.8 C730.36,686.8 668.36,700.8 706.36,720.8 Z" fill="#E9EDF1"/>


  <g fill="#0A2245">
    <polygon points="636.36,412.8 682.36,392.8 728.36,412.8 682.36,430.8"/>
    <path d="M636.36,412.8 L631.36,444.8" stroke="#0A2245" stroke-width="4" fill="none"/>
    <circle cx="631.36" cy="448.8" r="5.5"/>
    <circle cx="682.36" cy="440.8" r="19"/>
    <path d="M658.36,464.8 C658.36,456.8 706.36,456.8 706.36,464.8 L711.36,552.8 C711.36,560.8 653.36,560.8 653.36,552.8 Z"/>
    <line x1="655.36" y1="472.8" x2="646.36" y2="552.8" stroke="#0A2245" stroke-width="13" stroke-linecap="round"/>
    <line x1="709.36" y1="472.8" x2="719.36" y2="548.8" stroke="#0A2245" stroke-width="13" stroke-linecap="round"/>
    <rect x="660.36" y="472.8" width="44" height="74" rx="15" fill="#1B3A66"/>
    <rect x="665.36" y="482.8" width="34" height="34" rx="9" fill="#0A2245" opacity="0.35"/>
    <line x1="672.36" y1="560.8" x2="667.36" y2="638.8" stroke="#0A2245" stroke-width="15" stroke-linecap="round"/>
    <line x1="693.36" y1="560.8" x2="700.36" y2="634.8" stroke="#0A2245" stroke-width="15" stroke-linecap="round"/>
    <ellipse cx="663.36" cy="645.8" rx="14" ry="7"/>
    <ellipse cx="705.36" cy="641.8" rx="14" ry="7"/>
  </g>
</g><g id="scene-end"/>
<path d="M1289.96 443.56V451.62Q1289.96 491.3 1272.6 523.54Q1255.24 555.78 1224.24 574.0699999999999Q1193.24 592.36 1153.56 592.36H1051.26V730.0H914.24V303.44H1153.56Q1193.24 303.44 1224.24 321.73Q1255.24 340.02 1272.6 371.95Q1289.96 403.88 1289.96 443.56ZM1051.26 492.53999999999996H1107.68Q1129.38 492.53999999999996 1140.23 481.38Q1151.08 470.22 1151.08 451.0V446.04Q1151.08 426.2 1140.23 415.35Q1129.38 404.5 1107.68 404.5H1051.26Z" fill="#0A2245"/>
<path d="M96,648 C440,630 690,614 872,478 C912,446 940,402 958,356 L948,336 C926,394 894,446 854,486 C672,626 436,646 100,672 Z" fill="#C68B21" stroke="#FFFFFF" stroke-width="7"/>
<circle cx="912" cy="222" r="34" fill="#C68B21"/>
<path d="M862,372 C904,326 934,278 954,232 L994,158 L1018,178 L978,248 C954,298 920,344 888,384 Z" fill="#C68B21" stroke="#FFFFFF" stroke-width="6"/>
<path d="M850,386 C830,412 808,434 784,452 L802,468 C828,448 850,426 868,404 Z" fill="#9E7120"/>
<path d="M1088.5,49.1 L1096.9,99.9 L1147.3,110.0 L1101.6,133.6 L1107.6,184.7 L1071.0,148.6 L1024.2,170.0 L1047.3,124.0 L1012.4,86.2 L1063.3,93.9 Z" fill="#C68B21"/>
<path d="M109.98306505093065 918.0 121.22043367287102 801.6601836787349H160.68342818639104L171.72249030323837 918.0H149.7104682379081L148.05791402879922 899.2269841845232H134.04425433555593L132.59000663154012 918.0ZM135.6968085446648 880.6522748741394H146.2731554829616L141.1832885189063 821.4908341880415H140.1256538250766Z M193.12429553213312 918.0V824.002716585887H179.3089423439829V801.6601836787349H230.20761198453636V824.002716585887H216.39225879638613V918.0Z M242.68562448424316 918.0V801.6601836787349H265.82138341176744V843.2384475799144H276.7943433602504V801.6601836787349H299.93010228777473V918.0H276.7943433602504V865.2504696452446H265.82138341176744V918.0Z M316.2420405526142 918.0V801.6601836787349H339.5100038168672V898.1693494906934H363.43898876476374V918.0Z M376.0492056011993 918.0V801.6601836787349H422.58513212970524V824.1349209226157H399.7137818756384V846.8079646715895H421.6597017726043V868.687782400191H399.7137818756384V895.3269562510262H424.1054820020854V918.0Z M447.7547609553682 918.0V824.002716585887H433.93940776721803V801.6601836787349H484.8380774077715V824.002716585887H471.02272421962124V918.0Z M497.31608990747833 918.0V801.6601836787349H543.8520164359843V824.1349209226157H520.9806661819174V846.8079646715895H542.9265860788834V868.687782400191H520.9806661819174V895.3269562510262H545.3723663083645V918.0Z M586.6709242149301 919.0576346938296Q570.7403016391205 919.0576346938296 563.7004207083166 911.1253744901071Q556.6605397775129 903.1931142863845 556.6605397775129 885.8743461749234V874.5047732162543H579.6640943683085V889.0472502564124Q579.6640943683085 893.0794825266381 580.886984483049 895.3600073352084Q582.1098745977896 897.6405321437786 585.1505743425499 897.6405321437786Q588.323478424039 897.6405321437786 589.5463685387796 895.7896714295766Q590.7692586535202 893.9388107153748 590.7692586535202 889.708271940056Q590.7692586535202 884.3539963025432 589.7116239596905 880.7514281266858Q588.6539892658608 877.1488599508285 586.0429536154688 873.8768026167929Q583.4319179650768 870.6047452827573 578.8047661795719 866.24200217071L568.3606235780037 856.3266769160566Q556.6605397775129 845.2876147992093 556.6605397775129 831.075648600873Q556.6605397775129 816.2026607188931 563.568216371588 808.4026048518992Q570.4758929656631 800.6025489849053 583.5641223018055 800.6025489849053Q599.5608470459794 800.6025489849053 606.2702171349614 809.1297287039071Q612.9795872239434 817.6569084229088 612.9795872239434 835.0417787027343H589.3150109495043V827.0434163306473Q589.3150109495043 824.6637382695305 587.959916498035 823.3416949022435Q586.6048220465658 822.0196515349563 584.2912461538133 822.0196515349563Q581.5149550825104 822.0196515349563 580.2259627994055 823.5730524915186Q578.9369705163006 825.1264534480811 578.9369705163006 827.5722336775622Q578.9369705163006 830.0180139070433 580.2590138835876 832.8604071467105Q581.5810572508748 835.7028003863778 585.4810851843718 839.4045218147817L598.8998253623358 852.2944446458309Q602.9320576325615 856.1283704109636 606.3032682191435 860.3919602704646Q609.6744788057257 864.6555501299654 611.7236460250208 870.3072855251178Q613.7728132443158 875.9590209202702 613.7728132443158 884.0895876290858Q613.7728132443158 900.4829253834458 607.7244648389773 909.7702800386378Q601.6761164336388 919.0576346938296 586.6709242149301 919.0576346938296Z M692.9987184708649 919.0576346938296Q679.051160945986 919.0576346938296 671.6807691733604 910.6296082273743Q664.3103774007348 902.2015817609191 664.3103774007348 886.2709591851095V831.0095464325086Q664.3103774007348 816.0704563821644 671.614667004996 808.3365026835348Q678.9189566092573 800.6025489849053 692.9987184708649 800.6025489849053Q707.0784803324726 800.6025489849053 714.3827699367339 808.3365026835348Q721.687059540995 816.0704563821644 721.687059540995 831.0095464325086V886.2709591851095Q721.687059540995 902.2015817609191 714.3166677683695 910.6296082273743Q706.9462759957439 919.0576346938296 692.9987184708649 919.0576346938296ZM693.197024975958 897.6405321437786Q698.4851984451064 897.6405321437786 698.4851984451064 887.3946960473036V830.6129334223225Q698.4851984451064 822.0196515349563 693.3292293126867 822.0196515349563Q687.5122384966235 822.0196515349563 687.5122384966235 830.8112399274155V887.5269003840323Q687.5122384966235 892.9472781899094 688.8342818639105 895.2939051668441Q690.1563252311977 897.6405321437786 693.197024975958 897.6405321437786Z M737.0735674487336 918.0V801.6601836787349H783.6094939772396V824.3332274277087H760.4737350497153V842.8418345697282H782.4196549466811V865.2504696452446H760.4737350497153V918.0Z M834.8080798173022 918.0V801.6601836787349H865.5455881067273Q875.1965046879232 801.6601836787349 880.8482400830756 805.956824622418Q886.499975478228 810.2534655661011 888.945755707709 818.1857257698238Q891.3915359371902 826.1179859735464 891.3915359371902 837.0909459220293Q891.3915359371902 847.6672928603261 889.3423687178952 855.5003998115022Q887.2932014986002 863.3335067626783 882.038079113634 867.6301477063614Q876.7829567286677 871.9267886500445 867.1320401474718 871.9267886500445H857.6794300713691V918.0ZM857.6794300713691 851.0385034469082H859.0014734386561Q865.4794859383629 851.0385034469082 866.9337336423787 847.4028841868687Q868.3879813463946 843.7672649268292 868.3879813463946 836.6943329118432Q868.3879813463946 830.0841160754077 866.966784726561 826.4815478995504Q865.5455881067273 822.878979723693 860.2574146375789 822.878979723693H857.6794300713691Z M904.7288766256337 918.0V801.6601836787349H940.4240475423854Q949.3478402715734 801.6601836787349 953.9088898887139 805.7254670331428Q958.4699395058544 809.7907503875506 960.0233404624167 817.0950399918119Q961.576741418979 824.3993295960731 961.576741418979 834.2485526823621Q961.576741418979 843.7672649268292 959.1640122736801 849.4520514061637Q956.7512831283811 855.1368378854983 950.0749641235813 857.318209441522Q955.5614440978228 858.441946303716 957.7758667380288 862.7716383315812Q959.9902893782346 867.1013303594466 959.9902893782346 873.9759558693395V918.0H937.0528369558033V872.4556059969593Q937.0528369558033 867.365739032904 934.970618652326 866.1428489181634Q932.8884003488489 864.9199588034228 928.2612485633441 864.9199588034228V918.0ZM928.3934529000728 844.7587974522945H934.012137211043Q938.8375955016409 844.7587974522945 938.8375955016409 834.2485526823621Q938.8375955016409 827.4400293408335 937.7799608078112 825.3247599531741Q936.7223261139816 823.2094905655147 933.81383070595 823.2094905655147H928.3934529000728Z M1003.0075036622734 919.0576346938296Q989.0599461373945 919.0576346938296 981.6895543647688 910.6296082273743Q974.3191625921432 902.2015817609191 974.3191625921432 886.2709591851095V831.0095464325086Q974.3191625921432 816.0704563821644 981.6234521964045 808.3365026835348Q988.9277418006658 800.6025489849053 1003.0075036622734 800.6025489849053Q1017.0872655238811 800.6025489849053 1024.3915551281425 808.3365026835348Q1031.6958447324037 816.0704563821644 1031.6958447324037 831.0095464325086V886.2709591851095Q1031.6958447324037 902.2015817609191 1024.325452959778 910.6296082273743Q1016.9550611871524 919.0576346938296 1003.0075036622734 919.0576346938296ZM1003.2058101673665 897.6405321437786Q1008.4939836365149 897.6405321437786 1008.4939836365149 887.3946960473036V830.6129334223225Q1008.4939836365149 822.0196515349563 1003.3380145040952 822.0196515349563Q997.521023688032 822.0196515349563 997.521023688032 830.8112399274155V887.5269003840323Q997.521023688032 892.9472781899094 998.8430670553191 895.2939051668441Q1000.1651104226062 897.6405321437786 1003.2058101673665 897.6405321437786Z M1047.0823526401418 918.0V801.6601836787349H1082.5131148834362L1092.2962358013608 872.587810333688L1102.0132545509211 801.6601836787349H1137.7745276360372V918.0H1116.4896294227149V834.1824505139977L1103.136991413115 918.0H1082.2487062099788L1068.102842180007 834.1824505139977V918.0Z M1153.0288312070468 918.0V801.6601836787349H1175.5035684509276V918.0Z M1218.3885783982378 919.0576346938296Q1202.4579558224282 919.0576346938296 1195.4180748916242 911.1253744901071Q1188.3781939608205 903.1931142863845 1188.3781939608205 885.8743461749234V874.5047732162543H1211.381748551616V889.0472502564124Q1211.381748551616 893.0794825266381 1212.6046386663565 895.3600073352084Q1213.8275287810973 897.6405321437786 1216.8682285258576 897.6405321437786Q1220.0411326073465 897.6405321437786 1221.2640227220872 895.7896714295766Q1222.4869128368277 893.9388107153748 1222.4869128368277 889.708271940056Q1222.4869128368277 884.3539963025432 1221.429278142998 880.7514281266858Q1220.3716434491682 877.1488599508285 1217.7606077987762 873.8768026167929Q1215.1495721483843 870.6047452827573 1210.5224203628795 866.24200217071L1200.0782777613113 856.3266769160566Q1188.3781939608205 845.2876147992093 1188.3781939608205 831.075648600873Q1188.3781939608205 816.2026607188931 1195.2858705548956 808.4026048518992Q1202.1935471489708 800.6025489849053 1215.281776485113 800.6025489849053Q1231.278501229287 800.6025489849053 1237.987871318269 809.1297287039071Q1244.697241407251 817.6569084229088 1244.697241407251 835.0417787027343H1221.0326651328119V827.0434163306473Q1221.0326651328119 824.6637382695305 1219.6775706813426 823.3416949022435Q1218.3224762298732 822.0196515349563 1216.0089003371208 822.0196515349563Q1213.232609265818 822.0196515349563 1211.9436169827131 823.5730524915186Q1210.6546246996081 825.1264534480811 1210.6546246996081 827.5722336775622Q1210.6546246996081 830.0180139070433 1211.9766680668952 832.8604071467105Q1213.2987114341822 835.7028003863778 1217.1987393676793 839.4045218147817L1230.6174795456434 852.2944446458309Q1234.649711815869 856.1283704109636 1238.020922402451 860.3919602704646Q1241.3921329890334 864.6555501299654 1243.4413002083284 870.3072855251178Q1245.4904674276233 875.9590209202702 1245.4904674276233 884.0895876290858Q1245.4904674276233 900.4829253834458 1239.4421190222847 909.7702800386378Q1233.3937706169463 919.0576346938296 1218.3885783982378 919.0576346938296Z M1259.2244211262528 918.0V801.6601836787349H1305.7603476547588V824.1349209226157H1282.888997400692V846.8079646715895H1304.834917297658V868.687782400191H1282.888997400692V895.3269562510262H1307.280697527139V918.0Z" fill="#0A2245"/>
<path d="M421.48834189790034 1022.0V943.2886956371201H452.97286364305234V958.6284555214768H437.32004743452507V971.1507084882986H452.16786166661376V986.3115790445579H437.32004743452507V1022.0Z M502.8098666120381 1022.7155573123898Q493.3734545548974 1022.7155573123898 488.38691453418085 1017.0134599792834Q483.4003745134643 1011.3113626461771 483.4003745134643 1000.5332806283055V963.1454110559375Q483.4003745134643 953.0381640184314 488.3421922021565 947.8056511715808Q493.28400989084867 942.5731383247303 502.8098666120381 942.5731383247303Q512.3357233332275 942.5731383247303 517.2775410219197 947.8056511715808Q522.2193587106119 953.0381640184314 522.2193587106119 963.1454110559375V1000.5332806283055Q522.2193587106119 1011.3113626461771 517.2328186898953 1017.0134599792834Q512.2462786691788 1022.7155573123898 502.8098666120381 1022.7155573123898ZM502.9440336081112 1008.225521736496Q506.52182017006027 1008.225521736496 506.52182017006027 1001.2935602727197V962.8770770637914Q506.52182017006027 957.0631739006241 503.0334782721599 957.0631739006241Q499.0979130540159 957.0631739006241 499.0979130540159 963.0112440598645V1001.3830049367684Q499.0979130540159 1005.0502361627662 499.9923596945032 1006.6378789496312Q500.88680633499047 1008.225521736496 502.9440336081112 1008.225521736496Z M572.7719189919875 1022.7155573123898Q562.9330059466275 1022.7155573123898 558.2818834160937 1017.1923493073809Q553.6307608855599 1011.669141302372 553.6307608855599 1000.9357816165248V943.2886956371201H568.9257984378922V1000.3096689681837Q568.9257984378922 1002.2774515772556 569.1494100980141 1004.0887060242424Q569.3730217581359 1005.8999604712291 570.1780237345745 1007.0627411038625Q570.9830257110129 1008.225521736496 572.7719189919875 1008.225521736496Q574.6055346049865 1008.225521736496 575.410536581425 1007.0851022698748Q576.2155385578635 1005.9446828032535 576.4167890519732 1004.1110671902545Q576.6180395460827 1002.2774515772556 576.6180395460827 1000.3096689681837V943.2886956371201H591.9130770984151V1000.9357816165248Q591.9130770984151 1011.669141302372 587.2619545678813 1017.1923493073809Q582.6108320373476 1022.7155573123898 572.7719189919875 1022.7155573123898Z M623.9505919217041 1022.0V943.2886956371201H640.1400761145237L647.3850939024707 980.9896215336586V943.2886956371201H662.5906867907543V1022.0H647.2062045743733L639.3350741380852 982.64434781856V1022.0Z M695.567370586555 1022.0V943.2886956371201H717.2129792863469Q725.710222370976 943.2886956371201 730.0035662453149 948.0069016656905Q734.2969101196538 952.7251076942608 734.2969101196538 961.8037410952066V998.6549426832822Q734.2969101196538 1009.8355256893731 730.383706067522 1015.9177628446865Q726.4705020153901 1022.0 716.6763113020546 1022.0ZM711.3990761231796 1008.091354740423H714.1271383766658Q718.4652045830292 1008.091354740423 718.4652045830292 1003.8874555301328V963.2795780520106Q718.4652045830292 959.3440128338666 717.4142297804566 958.2035933672453Q716.363254977884 957.0631739006241 713.1432470721298 957.0631739006241H711.3990761231796Z M764.5902539939926 1022.0 772.1930504381345 943.2886956371201H798.8922826566795L806.3609121047482 1022.0H791.4683755406352L790.350317240026 1009.2988577050808H780.869182850861L779.885291546325 1022.0ZM781.9872411514701 996.7318824062346H789.1428142753682L785.6991947094923 956.7053952444292H784.9836373971025Z M842.781215466425 1022.0V958.404843861355H833.4342480733329V943.2886956371201H867.8704437320929V958.404843861355H858.5234763390009V1022.0Z M897.5376749580907 1022.0V943.2886956371201H912.7432678463744V1022.0Z M963.7877737800179 1022.7155573123898Q954.3513617228772 1022.7155573123898 949.3648217021607 1017.0134599792834Q944.3782816814442 1011.3113626461771 944.3782816814442 1000.5332806283055V963.1454110559375Q944.3782816814442 953.0381640184314 949.3200993701364 947.8056511715808Q954.2619170588285 942.5731383247303 963.7877737800179 942.5731383247303Q973.3136305012074 942.5731383247303 978.2554481898995 947.8056511715808Q983.1972658785917 953.0381640184314 983.1972658785917 963.1454110559375V1000.5332806283055Q983.1972658785917 1011.3113626461771 978.2107258578751 1017.0134599792834Q973.2241858371586 1022.7155573123898 963.7877737800179 1022.7155573123898ZM963.921940776091 1008.225521736496Q967.4997273380401 1008.225521736496 967.4997273380401 1001.2935602727197V962.8770770637914Q967.4997273380401 957.0631739006241 964.0113854401397 957.0631739006241Q960.0758202219957 957.0631739006241 960.0758202219957 963.0112440598645V1001.3830049367684Q960.0758202219957 1005.0502361627662 960.970266862483 1006.6378789496312Q961.8647135029703 1008.225521736496 963.921940776091 1008.225521736496Z M1015.5478370260513 1022.0V943.2886956371201H1031.7373212188709L1038.9823390068177 980.9896215336586V943.2886956371201H1054.1879318951014V1022.0H1038.8034496787204L1030.9323192424324 982.64434781856V1022.0Z" fill="#C68B21"/>
<polygon points="378.0,994 268.0,999 378.0,1004" fill="#C68B21"/>
<polygon points="1078.0,994 1188.0,999 1078.0,1004" fill="#C68B21"/>
<rect x="108.0" y="1052" width="1240" height="3" fill="#0A2245"/>
<path d="M130.3154296875 1140.0V1086.71875H144.392578125Q148.8125 1086.71875 151.40087890625 1088.6865234375Q153.9892578125 1090.654296875 155.109375 1094.287109375Q156.2294921875 1097.919921875 156.2294921875 1102.9453125Q156.2294921875 1107.7890625 155.291015625 1111.37646484375Q154.3525390625 1114.9638671875 151.94580078125 1116.931640625Q149.5390625 1118.8994140625 145.119140625 1118.8994140625H140.7900390625V1140.0ZM140.7900390625 1109.3330078125H141.3955078125Q144.3623046875 1109.3330078125 145.0283203125 1107.66796875Q145.6943359375 1106.0029296875 145.6943359375 1102.763671875Q145.6943359375 1099.736328125 145.04345703125 1098.08642578125Q144.392578125 1096.4365234375 141.970703125 1096.4365234375H140.7900390625Z M173.58984375 1140.0V1086.71875H189.9375Q194.0244140625 1086.71875 196.11328125 1088.58056640625Q198.2021484375 1090.4423828125 198.91357421875 1093.78759765625Q199.625 1097.1328125 199.625 1101.6435546875Q199.625 1106.0029296875 198.52001953125 1108.6064453125Q197.4150390625 1111.2099609375 194.357421875 1112.208984375Q196.8701171875 1112.7236328125 197.88427734375 1114.70654296875Q198.8984375 1116.689453125 198.8984375 1119.837890625V1140.0H188.3935546875V1119.1416015625Q188.3935546875 1116.810546875 187.43994140625 1116.25048828125Q186.486328125 1115.6904296875 184.3671875 1115.6904296875V1140.0ZM184.427734375 1106.45703125H187.0009765625Q189.2109375 1106.45703125 189.2109375 1101.6435546875Q189.2109375 1098.525390625 188.7265625 1097.556640625Q188.2421875 1096.587890625 186.91015625 1096.587890625H184.427734375Z M229.8515625 1140.484375Q223.4638671875 1140.484375 220.08837890625 1136.62451171875Q216.712890625 1132.7646484375 216.712890625 1125.46875V1100.16015625Q216.712890625 1093.318359375 220.05810546875 1089.7763671875Q223.4033203125 1086.234375 229.8515625 1086.234375Q236.2998046875 1086.234375 239.64501953125 1089.7763671875Q242.990234375 1093.318359375 242.990234375 1100.16015625V1125.46875Q242.990234375 1132.7646484375 239.61474609375 1136.62451171875Q236.2392578125 1140.484375 229.8515625 1140.484375ZM229.9423828125 1130.67578125Q232.3642578125 1130.67578125 232.3642578125 1125.9833984375V1099.978515625Q232.3642578125 1096.04296875 230.0029296875 1096.04296875Q227.3388671875 1096.04296875 227.3388671875 1100.0693359375V1126.0439453125Q227.3388671875 1128.5263671875 227.9443359375 1129.60107421875Q228.5498046875 1130.67578125 229.9423828125 1130.67578125Z M261.2890625 1140.0V1086.71875H277.515625L281.99609375 1119.2021484375L286.4462890625 1086.71875H302.82421875V1140.0H293.076171875V1101.61328125L286.9609375 1140.0H277.39453125L270.916015625 1101.61328125V1140.0Z M321.0625 1140.0V1086.71875H331.35546875V1140.0Z M362.248046875 1140.484375Q354.9521484375 1140.484375 351.72802734375 1136.8515625Q348.50390625 1133.21875 348.50390625 1125.287109375V1120.080078125H359.0390625V1126.740234375Q359.0390625 1128.5869140625 359.59912109375 1129.63134765625Q360.1591796875 1130.67578125 361.5517578125 1130.67578125Q363.0048828125 1130.67578125 363.56494140625 1129.828125Q364.125 1128.98046875 364.125 1127.04296875Q364.125 1124.5908203125 363.640625 1122.94091796875Q363.15625 1121.291015625 361.96044921875 1119.79248046875Q360.7646484375 1118.2939453125 358.6455078125 1116.2958984375L353.8623046875 1111.7548828125Q348.50390625 1106.69921875 348.50390625 1100.1904296875Q348.50390625 1093.37890625 351.66748046875 1089.806640625Q354.8310546875 1086.234375 360.8251953125 1086.234375Q368.1513671875 1086.234375 371.22412109375 1090.1396484375Q374.296875 1094.044921875 374.296875 1102.0068359375H363.458984375V1098.34375Q363.458984375 1097.25390625 362.83837890625 1096.6484375Q362.2177734375 1096.04296875 361.158203125 1096.04296875Q359.88671875 1096.04296875 359.29638671875 1096.75439453125Q358.7060546875 1097.4658203125 358.7060546875 1098.5859375Q358.7060546875 1099.7060546875 359.3115234375 1101.0078125Q359.9169921875 1102.3095703125 361.703125 1104.0048828125L367.8486328125 1109.908203125Q369.6953125 1111.6640625 371.2392578125 1113.61669921875Q372.783203125 1115.5693359375 373.7216796875 1118.15771484375Q374.66015625 1120.74609375 374.66015625 1124.4697265625Q374.66015625 1131.9775390625 371.89013671875 1136.23095703125Q369.1201171875 1140.484375 362.248046875 1140.484375Z M392.2021484375 1140.0V1086.71875H413.5146484375V1097.01171875H403.0400390625V1107.3955078125H413.0908203125V1117.416015625H403.0400390625V1129.6162109375H414.2109375V1140.0Z" fill="#0A2245"/>
<path d="M417.0263671875 1139.9697265625V1130.9482421875H427.8642578125V1139.9697265625Z" fill="#C68B21"/>
<path d="M503.484375 1140.0V1086.71875H517.5615234375Q521.9814453125 1086.71875 524.56982421875 1088.6865234375Q527.158203125 1090.654296875 528.2783203125 1094.287109375Q529.3984375 1097.919921875 529.3984375 1102.9453125Q529.3984375 1107.7890625 528.4599609375 1111.37646484375Q527.521484375 1114.9638671875 525.11474609375 1116.931640625Q522.7080078125 1118.8994140625 518.2880859375 1118.8994140625H513.958984375V1140.0ZM513.958984375 1109.3330078125H514.564453125Q517.53125 1109.3330078125 518.197265625 1107.66796875Q518.86328125 1106.0029296875 518.86328125 1102.763671875Q518.86328125 1099.736328125 518.21240234375 1098.08642578125Q517.5615234375 1096.4365234375 515.1396484375 1096.4365234375H513.958984375Z M546.7587890625 1140.0V1086.71875H563.1064453125Q567.193359375 1086.71875 569.2822265625 1088.58056640625Q571.37109375 1090.4423828125 572.08251953125 1093.78759765625Q572.7939453125 1097.1328125 572.7939453125 1101.6435546875Q572.7939453125 1106.0029296875 571.68896484375 1108.6064453125Q570.583984375 1111.2099609375 567.5263671875 1112.208984375Q570.0390625 1112.7236328125 571.05322265625 1114.70654296875Q572.0673828125 1116.689453125 572.0673828125 1119.837890625V1140.0H561.5625V1119.1416015625Q561.5625 1116.810546875 560.60888671875 1116.25048828125Q559.6552734375 1115.6904296875 557.5361328125 1115.6904296875V1140.0ZM557.5966796875 1106.45703125H560.169921875Q562.3798828125 1106.45703125 562.3798828125 1101.6435546875Q562.3798828125 1098.525390625 561.8955078125 1097.556640625Q561.4111328125 1096.587890625 560.0791015625 1096.587890625H557.5966796875Z M590.3056640625 1140.0V1086.71875H611.6181640625V1097.01171875H601.1435546875V1107.3955078125H611.1943359375V1117.416015625H601.1435546875V1129.6162109375H612.314453125V1140.0Z M629.826171875 1140.0V1086.71875H643.9033203125Q648.3232421875 1086.71875 650.91162109375 1088.6865234375Q653.5 1090.654296875 654.6201171875 1094.287109375Q655.740234375 1097.919921875 655.740234375 1102.9453125Q655.740234375 1107.7890625 654.8017578125 1111.37646484375Q653.86328125 1114.9638671875 651.45654296875 1116.931640625Q649.0498046875 1118.8994140625 644.6298828125 1118.8994140625H640.30078125V1140.0ZM640.30078125 1109.3330078125H640.90625Q643.873046875 1109.3330078125 644.5390625 1107.66796875Q645.205078125 1106.0029296875 645.205078125 1102.763671875Q645.205078125 1099.736328125 644.55419921875 1098.08642578125Q643.9033203125 1096.4365234375 641.4814453125 1096.4365234375H640.30078125Z M670.7392578125 1140.0 675.8857421875 1086.71875H693.958984375L699.0146484375 1140.0H688.93359375L688.1767578125 1131.40234375H681.7587890625L681.0927734375 1140.0ZM682.515625 1122.8955078125H687.359375L685.0283203125 1095.80078125H684.5439453125Z M716.2841796875 1140.0V1086.71875H732.6318359375Q736.71875 1086.71875 738.8076171875 1088.58056640625Q740.896484375 1090.4423828125 741.60791015625 1093.78759765625Q742.3193359375 1097.1328125 742.3193359375 1101.6435546875Q742.3193359375 1106.0029296875 741.21435546875 1108.6064453125Q740.109375 1111.2099609375 737.0517578125 1112.208984375Q739.564453125 1112.7236328125 740.57861328125 1114.70654296875Q741.5927734375 1116.689453125 741.5927734375 1119.837890625V1140.0H731.087890625V1119.1416015625Q731.087890625 1116.810546875 730.13427734375 1116.25048828125Q729.1806640625 1115.6904296875 727.0615234375 1115.6904296875V1140.0ZM727.1220703125 1106.45703125H729.6953125Q731.9052734375 1106.45703125 731.9052734375 1101.6435546875Q731.9052734375 1098.525390625 731.4208984375 1097.556640625Q730.9365234375 1096.587890625 729.6044921875 1096.587890625H727.1220703125Z M758.3779296875 1140.0 763.5244140625 1086.71875H781.59765625L786.6533203125 1140.0H776.572265625L775.8154296875 1131.40234375H769.3974609375L768.7314453125 1140.0ZM770.154296875 1122.8955078125H774.998046875L772.6669921875 1095.80078125H772.1826171875Z M807.70703125 1140.0V1096.951171875H801.3798828125V1086.71875H824.6904296875V1096.951171875H818.36328125V1140.0Z M841.1728515625 1140.0V1086.71875H851.4658203125V1140.0Z M882.4189453125 1140.484375Q876.03125 1140.484375 872.65576171875 1136.62451171875Q869.2802734375 1132.7646484375 869.2802734375 1125.46875V1100.16015625Q869.2802734375 1093.318359375 872.62548828125 1089.7763671875Q875.970703125 1086.234375 882.4189453125 1086.234375Q888.8671875 1086.234375 892.21240234375 1089.7763671875Q895.5576171875 1093.318359375 895.5576171875 1100.16015625V1125.46875Q895.5576171875 1132.7646484375 892.18212890625 1136.62451171875Q888.806640625 1140.484375 882.4189453125 1140.484375ZM882.509765625 1130.67578125Q884.931640625 1130.67578125 884.931640625 1125.9833984375V1099.978515625Q884.931640625 1096.04296875 882.5703125 1096.04296875Q879.90625 1096.04296875 879.90625 1100.0693359375V1126.0439453125Q879.90625 1128.5263671875 880.51171875 1129.60107421875Q881.1171875 1130.67578125 882.509765625 1130.67578125Z M913.8564453125 1140.0V1086.71875H924.8154296875L929.7197265625 1112.2392578125V1086.71875H940.0126953125V1140.0H929.5986328125L924.2705078125 1113.359375V1140.0Z" fill="#0A2245"/>
<path d="M944.0390625 1139.9697265625V1130.9482421875H954.876953125V1139.9697265625Z" fill="#C68B21"/>
<path d="M1030.4970703125 1140.0V1086.71875H1044.57421875Q1048.994140625 1086.71875 1051.58251953125 1088.6865234375Q1054.1708984375 1090.654296875 1055.291015625 1094.287109375Q1056.4111328125 1097.919921875 1056.4111328125 1102.9453125Q1056.4111328125 1107.7890625 1055.47265625 1111.37646484375Q1054.5341796875 1114.9638671875 1052.12744140625 1116.931640625Q1049.720703125 1118.8994140625 1045.30078125 1118.8994140625H1040.9716796875V1140.0ZM1040.9716796875 1109.3330078125H1041.5771484375Q1044.5439453125 1109.3330078125 1045.2099609375 1107.66796875Q1045.8759765625 1106.0029296875 1045.8759765625 1102.763671875Q1045.8759765625 1099.736328125 1045.22509765625 1098.08642578125Q1044.57421875 1096.4365234375 1042.15234375 1096.4365234375H1040.9716796875Z M1086.0927734375 1140.484375Q1079.4326171875 1140.484375 1076.2841796875 1136.74560546875Q1073.1357421875 1133.0068359375 1073.1357421875 1125.7412109375V1086.71875H1083.4892578125V1125.3173828125Q1083.4892578125 1126.6494140625 1083.640625 1127.87548828125Q1083.7919921875 1129.1015625 1084.3369140625 1129.888671875Q1084.8818359375 1130.67578125 1086.0927734375 1130.67578125Q1087.333984375 1130.67578125 1087.87890625 1129.90380859375Q1088.423828125 1129.1318359375 1088.56005859375 1127.890625Q1088.6962890625 1126.6494140625 1088.6962890625 1125.3173828125V1086.71875H1099.0498046875V1125.7412109375Q1099.0498046875 1133.0068359375 1095.9013671875 1136.74560546875Q1092.7529296875 1140.484375 1086.0927734375 1140.484375Z M1117.13671875 1140.0V1086.71875H1133.484375Q1137.5712890625 1086.71875 1139.66015625 1088.58056640625Q1141.7490234375 1090.4423828125 1142.46044921875 1093.78759765625Q1143.171875 1097.1328125 1143.171875 1101.6435546875Q1143.171875 1106.0029296875 1142.06689453125 1108.6064453125Q1140.9619140625 1111.2099609375 1137.904296875 1112.208984375Q1140.4169921875 1112.7236328125 1141.43115234375 1114.70654296875Q1142.4453125 1116.689453125 1142.4453125 1119.837890625V1140.0H1131.9404296875V1119.1416015625Q1131.9404296875 1116.810546875 1130.98681640625 1116.25048828125Q1130.033203125 1115.6904296875 1127.9140625 1115.6904296875V1140.0ZM1127.974609375 1106.45703125H1130.5478515625Q1132.7578125 1106.45703125 1132.7578125 1101.6435546875Q1132.7578125 1098.525390625 1132.2734375 1097.556640625Q1131.7890625 1096.587890625 1130.45703125 1096.587890625H1127.974609375Z M1160.68359375 1140.0V1086.71875H1174.7607421875Q1179.1806640625 1086.71875 1181.76904296875 1088.6865234375Q1184.357421875 1090.654296875 1185.4775390625 1094.287109375Q1186.59765625 1097.919921875 1186.59765625 1102.9453125Q1186.59765625 1107.7890625 1185.6591796875 1111.37646484375Q1184.720703125 1114.9638671875 1182.31396484375 1116.931640625Q1179.9072265625 1118.8994140625 1175.4873046875 1118.8994140625H1171.158203125V1140.0ZM1171.158203125 1109.3330078125H1171.763671875Q1174.73046875 1109.3330078125 1175.396484375 1107.66796875Q1176.0625 1106.0029296875 1176.0625 1102.763671875Q1176.0625 1099.736328125 1175.41162109375 1098.08642578125Q1174.7607421875 1096.4365234375 1172.3388671875 1096.4365234375H1171.158203125Z M1216.6728515625 1140.484375Q1210.28515625 1140.484375 1206.90966796875 1136.62451171875Q1203.5341796875 1132.7646484375 1203.5341796875 1125.46875V1100.16015625Q1203.5341796875 1093.318359375 1206.87939453125 1089.7763671875Q1210.224609375 1086.234375 1216.6728515625 1086.234375Q1223.12109375 1086.234375 1226.46630859375 1089.7763671875Q1229.8115234375 1093.318359375 1229.8115234375 1100.16015625V1125.46875Q1229.8115234375 1132.7646484375 1226.43603515625 1136.62451171875Q1223.060546875 1140.484375 1216.6728515625 1140.484375ZM1216.763671875 1130.67578125Q1219.185546875 1130.67578125 1219.185546875 1125.9833984375V1099.978515625Q1219.185546875 1096.04296875 1216.82421875 1096.04296875Q1214.16015625 1096.04296875 1214.16015625 1100.0693359375V1126.0439453125Q1214.16015625 1128.5263671875 1214.765625 1129.60107421875Q1215.37109375 1130.67578125 1216.763671875 1130.67578125Z M1260.7646484375 1140.484375Q1253.46875 1140.484375 1250.24462890625 1136.8515625Q1247.0205078125 1133.21875 1247.0205078125 1125.287109375V1120.080078125H1257.5556640625V1126.740234375Q1257.5556640625 1128.5869140625 1258.11572265625 1129.63134765625Q1258.67578125 1130.67578125 1260.068359375 1130.67578125Q1261.521484375 1130.67578125 1262.08154296875 1129.828125Q1262.6416015625 1128.98046875 1262.6416015625 1127.04296875Q1262.6416015625 1124.5908203125 1262.1572265625 1122.94091796875Q1261.6728515625 1121.291015625 1260.47705078125 1119.79248046875Q1259.28125 1118.2939453125 1257.162109375 1116.2958984375L1252.37890625 1111.7548828125Q1247.0205078125 1106.69921875 1247.0205078125 1100.1904296875Q1247.0205078125 1093.37890625 1250.18408203125 1089.806640625Q1253.34765625 1086.234375 1259.341796875 1086.234375Q1266.66796875 1086.234375 1269.74072265625 1090.1396484375Q1272.8134765625 1094.044921875 1272.8134765625 1102.0068359375H1261.9755859375V1098.34375Q1261.9755859375 1097.25390625 1261.35498046875 1096.6484375Q1260.734375 1096.04296875 1259.6748046875 1096.04296875Q1258.4033203125 1096.04296875 1257.81298828125 1096.75439453125Q1257.22265625 1097.4658203125 1257.22265625 1098.5859375Q1257.22265625 1099.7060546875 1257.828125 1101.0078125Q1258.43359375 1102.3095703125 1260.2197265625 1104.0048828125L1266.365234375 1109.908203125Q1268.2119140625 1111.6640625 1269.755859375 1113.61669921875Q1271.2998046875 1115.5693359375 1272.23828125 1118.15771484375Q1273.1767578125 1120.74609375 1273.1767578125 1124.4697265625Q1273.1767578125 1131.9775390625 1270.40673828125 1136.23095703125Q1267.63671875 1140.484375 1260.7646484375 1140.484375Z M1290.71875 1140.0V1086.71875H1312.03125V1097.01171875H1301.556640625V1107.3955078125H1311.607421875V1117.416015625H1301.556640625V1129.6162109375H1312.7275390625V1140.0Z" fill="#0A2245"/>
<path d="M1315.54296875 1139.9697265625V1130.9482421875H1326.380859375V1139.9697265625Z" fill="#C68B21"/>
</svg>